<svg width="213" height="173" viewBox="0 0 213 173" xmlns="http://www.w3.org/2000/svg">
    <g fill="none" fill-rule="evenodd">
        <path d="M113.033 52.902c-3.698-2.135-9.75-2.135-13.447 0L2.761 108.804c-3.698 2.135-3.679 5.596.043 7.69l96.74 54.447c3.72 2.095 9.81 2.095 13.531 0l96.74-54.447c3.722-2.094 3.74-5.555.043-7.69l-96.825-55.902z" fill-opacity=".5" fill="#F9D28C"/>
        <path stroke="#33475C" stroke-width="5" stroke-linecap="round" stroke-linejoin="round" d="M125.567 94.88l-24.912-14.383-46.845 27.045 34.674 20.02 37.084-21.41z"/>
        <path stroke="#33475C" stroke-width="5" stroke-linecap="round" stroke-linejoin="round" d="M125.567 94.9l-9.76 5.637 9.76 5.635z"/>
        <path fill="#FFF" d="M125.567 94.88l-24.912-14.383-46.845 27.045 34.674 20.02 37.084-21.41z"/>
        <path stroke="#33475C" stroke-linecap="round" stroke-linejoin="round" d="M125.567 94.88l-24.912-14.383-46.845 27.045 34.674 20.02 37.084-21.41z"/>
        <path fill="#E6EFF6" d="M125.567 94.9l-9.76 5.637 9.76 5.635z"/>
        <path stroke="#33475C" stroke-linecap="round" stroke-linejoin="round" d="M125.567 94.9l-9.76 5.637 9.76 5.635z"/>
        <path fill="#6A78D1" d="M100.519 84.412l-6.165 3.558 18.494 10.678 6.165-3.558z"/>
        <path stroke="#6A78D1" stroke-linecap="round" stroke-linejoin="round" d="M100.519 84.412l-6.165 3.558 18.494 10.678 6.165-3.558z"/>
        <path d="M96.83 95.051l-7.047-4.068M93.307 93.017l-7.046 4.067" stroke="#33475C" stroke-width="2" stroke-linecap="round" stroke-linejoin="round"/>
        <path d="M100.08 96.995l16.86 9.733M95.857 99.433l16.859 9.734M91.633 101.871l16.859 9.734" stroke="#33475C" stroke-width="1.5" stroke-linecap="round" stroke-linejoin="round"/>
        <path fill="#D5DAF1" d="M104.626 113.73L77.71 98.19l-16.179 9.34 26.916 15.54z"/>
        <path stroke="#D5DAF1" stroke-linecap="round" stroke-linejoin="round" d="M104.626 113.73L77.71 98.19l-16.179 9.34 26.916 15.54z"/>
        <path d="M77.184 101.853l20.659 11.928M72.916 104.266l20.703 11.953M68.692 106.704l16.63 9.602" stroke="#33475C" stroke-width="1.5" stroke-linecap="round" stroke-linejoin="round"/>
        <path d="M87.492 145.458l-33.15-19.14c-.953-.549-.832-1.519.268-2.154l26.967-15.57c1.101-.635 2.78-.704 3.732-.155l33.151 19.14c.952.55.832 1.52-.269 2.154l-26.967 15.57c-1.1.634-2.779.705-3.732.155z" stroke="#33475C" stroke-width="5" stroke-linecap="round" stroke-linejoin="round"/>
        <path d="M118.46 127.579l-33.15-19.14c-.536-.307-1.299-.415-2.06-.342l-2.58 20.748c-.106.837.997 1.473 2.448 1.413l35.936-1.49c.126-.44-.06-.88-.594-1.19z" stroke="#33475C" stroke-width="5" stroke-linecap="round" stroke-linejoin="round"/>
        <path d="M91.689 129.903l-8.57.355c-1.451.06-2.554-.576-2.45-1.414l.616-4.948-27.51 1.14c-.183.47-.005.953.567 1.283l33.15 19.14c.573.33 1.408.432 2.222.327l1.975-15.883z" stroke="#33475C" stroke-width="5" stroke-linecap="round" stroke-linejoin="round"/>
        <path d="M87.492 145.458l-33.15-19.14c-.953-.549-.832-1.519.268-2.154l26.967-15.57c1.101-.635 2.78-.704 3.732-.155l33.151 19.14c.952.55.832 1.52-.269 2.154l-26.967 15.57c-1.1.634-2.779.705-3.732.155" fill="#E6EFF6"/>
        <path d="M87.492 145.458l-33.15-19.14c-.953-.549-.832-1.519.268-2.154l26.967-15.57c1.101-.635 2.78-.704 3.732-.155l33.151 19.14c.952.55.832 1.52-.269 2.154l-26.967 15.57c-1.1.634-2.779.705-3.732.155z" stroke="#33475C"/>
        <path d="M118.46 127.579l-33.15-19.14c-.536-.307-1.299-.415-2.06-.342l-2.58 20.748c-.106.837.997 1.473 2.448 1.413l35.936-1.49c.126-.44-.06-.88-.594-1.19" fill="#FFF"/>
        <path d="M118.46 127.579l-33.15-19.14c-.536-.307-1.299-.415-2.06-.342l-2.58 20.748c-.106.837.997 1.473 2.448 1.413l35.936-1.49c.126-.44-.06-.88-.594-1.19z" stroke="#33475C"/>
        <path d="M91.689 129.903l-8.57.355c-1.451.06-2.554-.576-2.45-1.414l.616-4.948-27.51 1.14c-.183.47-.005.953.567 1.283l33.15 19.14c.573.33 1.408.432 2.222.327l1.975-15.883z" fill="#D4E7F7"/>
        <path d="M91.689 129.903l-8.57.355c-1.451.06-2.554-.576-2.45-1.414l.616-4.948-27.51 1.14c-.183.47-.005.953.567 1.283l33.15 19.14c.573.33 1.408.432 2.222.327l1.975-15.883z" stroke="#33475C"/>
        <path stroke="#33475C" stroke-width="5" stroke-linecap="round" stroke-linejoin="round" d="M164.54 116.541l-3.865 2.266 1.42.925.932 1.592.748 2.512 3.7-2.425-.295-2.007-1.494-2.237z"/>
        <path stroke="#33475C" stroke-width="5" stroke-linecap="round" stroke-linejoin="round" d="M160.675 118.807l-2.492 1.355 1.42.926.932 1.592.748 2.512 2.493-1.356-.47-1.837-1.211-2.266z"/>
        <path stroke="#33475C" stroke-width="5" stroke-linecap="round" stroke-linejoin="round" d="M158.252 120.189l-32.115 18.48 1.42.926.932 1.592.748 2.512 32.116-18.481-.47-1.837-1.212-2.266z"/>
        <path d="M168.179 120.613c0-1.545-1.095-3.441-2.433-4.214-.588-.34-1.123-.394-1.546-.232l-.01-.02-.11.066c-.033.016-.064.035-.094.054l-38.795 22.399.024.049c-.266.067-.494.216-.664.446l-.006-.01-4.678 6.562 7.97-.948-.004-.007c.145-.023.273-.078.395-.145l.004.009.05-.03.007-.002 39.15-22.385-.004-.01c.457-.247.744-.794.744-1.582z" stroke="#33475C" stroke-width="5" stroke-linecap="round" stroke-linejoin="round"/>
        <path d="M128.948 143.09c0-1.505-1.066-3.352-2.37-4.104-.862-.498-1.612-.386-2.027.174l-.006-.009-4.678 6.561 7.971-.947-.005-.008c.667-.102 1.115-.694 1.115-1.667z" stroke="#33475C" stroke-width="5" stroke-linecap="round" stroke-linejoin="round"/>
        <path d="M122.857 142.71c-.28-.162-.534-.182-.728-.09l-.326.446-1.935 2.646 3.282-.379.49-.058c.187-.118.302-.352.302-.685 0-.69-.488-1.536-1.085-1.88zM159.423 118.88c.437-.224 1.021-.185 1.665.187 1.342.775 2.439 2.676 2.439 4.225 0 .74-.254 1.262-.662 1.531l-2.375 1.371c.364-.284.592-.782.592-1.476 0-1.555-1.102-3.463-2.449-4.24-.618-.358-1.179-.405-1.61-.213l2.4-1.386zM127.76 144.262c-.025.004-.05.01-.072.017l-2.747.327c0-.006.002-.01.002-.01 0-1.05-.682-2.23-1.585-2.752-.03-.017-.06-.024-.09-.04l1.623-2.275c.023-.022.044-.045.063-.072.389-.526 1.09-.202 1.375-.038 1.149.664 2.119 2.345 2.119 3.671 0 .321-.067 1.078-.688 1.172z" stroke="#33475C" stroke-width="5" stroke-linecap="round" stroke-linejoin="round"/>
        <path fill="#FBA9BE" d="M164.54 116.541l-3.865 2.266 1.42.925.932 1.592.748 2.512 3.7-2.425-.295-2.007-1.494-2.237z"/>
        <path fill="#D4E7F7" d="M160.675 118.807l-2.492 1.355 1.42.926.932 1.592.748 2.512 2.493-1.356-.47-1.837-1.211-2.266z"/>
        <path fill="#F6C364" d="M158.252 120.189l-32.115 18.48 1.42.926.932 1.592.748 2.512 32.116-18.481-.47-1.837-1.212-2.266z"/>
        <path d="M168.179 120.613c0-1.545-1.095-3.441-2.433-4.214-.588-.34-1.123-.394-1.546-.232l-.01-.02-.11.066c-.033.016-.064.035-.094.054l-38.795 22.399.024.049c-.266.067-.494.216-.664.446l-.006-.01-4.678 6.562 7.97-.948-.004-.007c.145-.023.273-.078.395-.145l.004.009.05-.03.007-.002 39.15-22.385-.004-.01c.457-.247.744-.794.744-1.582z" stroke="#33475C" stroke-width="2" stroke-linecap="round" stroke-linejoin="round"/>
        <path d="M128.948 143.09c0-1.505-1.066-3.352-2.37-4.104-.862-.498-1.612-.386-2.027.174l-.006-.009-4.678 6.561 7.971-.947-.005-.008c.667-.102 1.115-.694 1.115-1.667" fill="#FFF"/>
        <path d="M128.948 143.09c0-1.505-1.066-3.352-2.37-4.104-.862-.498-1.612-.386-2.027.174l-.006-.009-4.678 6.561 7.971-.947-.005-.008c.667-.102 1.115-.694 1.115-1.667z" stroke="#33475C" stroke-linecap="round" stroke-linejoin="round"/>
        <path d="M122.857 142.71c-.28-.162-.534-.182-.728-.09l-.326.446-1.935 2.646 3.282-.379.49-.058c.187-.118.302-.352.302-.685 0-.69-.488-1.536-1.085-1.88" fill="#33475C"/>
        <path d="M122.857 142.71c-.28-.162-.534-.182-.728-.09l-.326.446-1.935 2.646 3.282-.379.49-.058c.187-.118.302-.352.302-.685 0-.69-.488-1.536-1.085-1.88z" stroke="#33475C" stroke-width="2" stroke-linecap="round" stroke-linejoin="round"/>
        <path d="M159.423 118.88c.437-.224 1.021-.185 1.665.187 1.342.775 2.439 2.676 2.439 4.225 0 .74-.254 1.262-.662 1.531l-2.375 1.371c.364-.284.592-.782.592-1.476 0-1.555-1.102-3.463-2.449-4.24-.618-.358-1.179-.405-1.61-.213l2.4-1.386z" stroke="#33475C" stroke-linecap="round" stroke-linejoin="round"/>
        <path d="M127.76 144.262c-.025.004-.05.01-.072.017l-2.747.327c0-.006.002-.01.002-.01 0-1.05-.682-2.23-1.585-2.752-.03-.017-.06-.024-.09-.04l1.623-2.275c.023-.022.044-.045.063-.072.389-.526 1.09-.202 1.375-.038 1.149.664 2.119 2.345 2.119 3.671 0 .321-.067 1.078-.688 1.172" fill="#FEF8F0"/>
        <path stroke="#33475C" stroke-width="5" stroke-linecap="round" stroke-linejoin="round" d="M39.48 71.62v29.138l44.326-25.724V46.362zM36.825 60.285l1.562.907v39.404l-1.562-.91z"/>
        <path stroke="#33475C" stroke-width="5" stroke-linecap="round" stroke-linejoin="round" d="M36.825 60.285v10.487l1.562.908V61.191zM83.713 35.71l-44.14 25.483V71.68l44.14-25.484zM81.556 33.77l1.567.91L38.98 60.168l-1.566-.911z"/>
        <path stroke="#33475C" stroke-width="5" stroke-linecap="round" stroke-linejoin="round" d="M66.748 85.593l2.784-1.607 14.774-8.53V34.683l-2.748-1.597L58.895 46.17 36.232 59.254v40.774l2.748 1.596z"/>
        <path stroke="#33475C" stroke-width="5" stroke-linecap="round" stroke-linejoin="round" d="M71.002 83.137l13.304-7.68V34.682L61.644 47.767 38.981 60.851v40.773zM36.233 59.254l2.748 1.597M43.089 79.098l37.544-21.677M43.089 85.381l32.302-18.649M43.089 91.931l26.105-15.072M47.28 71.399v21.933M53.8 68.131v21.562M60.316 64.347v21.377"/>
        <path d="M42.458 61.695c-.169 0-.34-.043-.497-.134-.477-.274-.64-.884-.365-1.36.708-1.227.708-3.377 0-4.604-.234-.404-.523-.656-.753-.656-.232 0-.52.252-.754.656-.253.44-.424 1.01-.495 1.653-.06.547-.547.942-1.1.88-.547-.06-.94-.552-.882-1.1.102-.912.361-1.753.751-2.43.607-1.05 1.511-1.652 2.48-1.652.97 0 1.872.602 2.48 1.653 1.066 1.85 1.066 4.746 0 6.595-.185.32-.52.499-.865.499z" stroke="#33475C" stroke-width="5" stroke-linecap="round" stroke-linejoin="round"/>
        <path d="M47.856 58.63c-.17 0-.341-.044-.497-.135-.477-.274-.641-.884-.365-1.36.708-1.226.708-3.377 0-4.603-.234-.405-.522-.657-.753-.657-.231 0-.52.252-.753.657-.254.44-.426 1.01-.496 1.653-.06.547-.544.944-1.1.881-.547-.06-.942-.553-.882-1.1.102-.914.362-1.755.75-2.43.609-1.05 1.513-1.653 2.48-1.653h.002c.968 0 1.872.602 2.478 1.653 1.068 1.85 1.068 4.746 0 6.595-.185.32-.52.498-.864.498z" stroke="#33475C" stroke-width="5" stroke-linecap="round" stroke-linejoin="round"/>
        <path d="M53.254 55.565c-.17 0-.341-.043-.498-.134-.477-.274-.64-.884-.364-1.36.708-1.226.708-3.377 0-4.603-.234-.405-.523-.657-.753-.657-.233 0-.52.252-.754.656-.254.44-.425 1.01-.496 1.654-.06.546-.542.945-1.1.88-.546-.06-.941-.552-.881-1.1.101-.913.361-1.754.751-2.43.607-1.05 1.509-1.652 2.479-1.652h.001c.968 0 1.872.6 2.478 1.653 1.068 1.849 1.068 4.746 0 6.595-.184.32-.519.498-.863.498z" stroke="#33475C" stroke-width="5" stroke-linecap="round" stroke-linejoin="round"/>
        <path d="M58.651 52.5c-.169 0-.34-.042-.497-.133-.477-.275-.64-.885-.365-1.36.709-1.227.709-3.378 0-4.605-.233-.404-.522-.656-.752-.656-.232 0-.521.252-.754.657-.255.441-.425 1.012-.495 1.651-.06.547-.556.94-1.1.883-.546-.06-.94-.552-.883-1.099.1-.91.36-1.752.752-2.43.606-1.052 1.51-1.654 2.48-1.654.969 0 1.872.602 2.479 1.653 1.067 1.85 1.067 4.746 0 6.595-.184.32-.52.498-.864.498z" stroke="#33475C" stroke-width="5" stroke-linecap="round" stroke-linejoin="round"/>
        <path d="M64.049 49.436c-.17 0-.341-.043-.497-.134-.477-.275-.641-.885-.365-1.36.709-1.227.709-3.377 0-4.603-.234-.405-.522-.657-.753-.657-.231 0-.52.252-.753.657-.254.439-.426 1.01-.496 1.653-.061.547-.537.942-1.1.88-.547-.06-.942-.552-.882-1.1.102-.914.362-1.754.75-2.43.609-1.05 1.513-1.652 2.48-1.652h.002c.968 0 1.872.602 2.478 1.653 1.069 1.849 1.069 4.745 0 6.595-.185.319-.52.498-.864.498z" stroke="#33475C" stroke-width="5" stroke-linecap="round" stroke-linejoin="round"/>
        <path d="M69.447 46.371c-.17 0-.34-.043-.498-.134-.477-.275-.64-.885-.364-1.36.708-1.226.707-3.377 0-4.604-.234-.405-.523-.656-.753-.656-.232 0-.52.251-.753.656-.255.44-.426 1.011-.497 1.654-.06.547-.55.943-1.099.881-.547-.06-.942-.553-.882-1.1.101-.915.361-1.755.751-2.43.607-1.05 1.51-1.653 2.48-1.654.968 0 1.872.602 2.478 1.653 1.068 1.851 1.068 4.747 0 6.596-.184.32-.519.498-.863.498zM53.254 55.565c-.17 0-.341-.043-.498-.134-.477-.274-.64-.884-.364-1.36.708-1.226.708-3.377 0-4.603-.234-.405-.523-.657-.753-.657-.233 0-.52.252-.754.656-.254.44-.425 1.01-.496 1.654-.06.546-.542.945-1.1.88-.546-.06-.941-.552-.881-1.1.101-.913.361-1.754.751-2.43.607-1.05 1.509-1.652 2.479-1.652h.001c.968 0 1.872.6 2.478 1.653 1.068 1.849 1.068 4.746 0 6.595-.184.32-.519.498-.863.498z" stroke="#33475C" stroke-width="5" stroke-linecap="round" stroke-linejoin="round"/>
        <path d="M74.844 43.307c-.17 0-.34-.043-.497-.134-.477-.275-.64-.885-.364-1.36.708-1.227.708-3.377 0-4.604-.234-.404-.522-.656-.753-.656-.232 0-.521.252-.754.656-.254.442-.425 1.013-.495 1.652-.061.547-.55.935-1.1.883-.546-.06-.94-.552-.881-1.099.099-.911.359-1.752.75-2.431.607-1.051 1.51-1.654 2.48-1.654.968 0 1.872.603 2.479 1.653 1.068 1.85 1.067 4.747-.001 6.596-.184.319-.52.498-.864.498zM58.651 52.5c-.169 0-.34-.042-.497-.133-.477-.275-.64-.885-.365-1.36.709-1.227.709-3.378 0-4.605-.233-.404-.522-.656-.752-.656-.232 0-.521.252-.754.657-.255.441-.425 1.012-.495 1.651-.06.547-.556.94-1.1.883-.546-.06-.94-.552-.883-1.099.1-.91.36-1.752.752-2.43.606-1.052 1.51-1.654 2.48-1.654.969 0 1.872.602 2.479 1.653 1.067 1.85 1.067 4.746 0 6.595-.184.32-.52.498-.864.498z" stroke="#33475C" stroke-width="5" stroke-linecap="round" stroke-linejoin="round"/>
        <path d="M80.242 40.242c-.169 0-.34-.042-.497-.133-.477-.275-.64-.886-.365-1.36.71-1.227.71-3.378 0-4.605-.234-.404-.523-.655-.753-.655-.232 0-.52.25-.753.656-.254.44-.425 1.01-.496 1.652-.06.548-.546.94-1.1.882-.547-.06-.942-.553-.882-1.1.102-.914.362-1.755.751-2.43.607-1.05 1.51-1.653 2.48-1.654.968 0 1.872.602 2.48 1.653 1.067 1.85 1.067 4.746 0 6.596-.186.32-.52.498-.865.498z" stroke="#33475C" stroke-width="5" stroke-linecap="round" stroke-linejoin="round"/>
        <path fill="#FFF" d="M39.48 71.62v29.138l44.326-25.724V46.362z"/>
        <path fill="#E6EFF6" d="M36.825 60.285l1.562.907v39.404l-1.562-.91z"/>
        <path stroke="#E6EFF6" d="M36.825 60.285l1.562.907v39.404l-1.562-.91z"/>
        <path fill="#FBE1B2" d="M36.825 60.285v10.487l1.562.908V61.191z"/>
        <path stroke="#FBE1B2" d="M36.825 60.285v10.487l1.562.908V61.191z"/>
        <path fill="#FBE1B2" d="M83.713 35.71l-44.14 25.483V71.68l44.14-25.484z"/>
        <path stroke="#FBE1B2" d="M83.713 35.71l-44.14 25.483V71.68l44.14-25.484z"/>
        <path fill="#FBE1B2" d="M81.556 33.77l1.567.91L38.98 60.168l-1.566-.911z"/>
        <path stroke="#FBE1B2" d="M81.556 33.77l1.567.91L38.98 60.168l-1.566-.911z"/>
        <path stroke="#33475C" stroke-linecap="round" stroke-linejoin="round" d="M66.748 85.593l2.784-1.607 14.774-8.53V34.683l-2.748-1.597L58.895 46.17 36.232 59.254v40.774l2.748 1.596z"/>
        <path stroke="#33475C" stroke-linecap="round" stroke-linejoin="round" d="M71.002 83.137l13.304-7.68V34.682L61.644 47.767 38.981 60.851v40.773z"/>
        <path d="M36.233 59.254l2.748 1.597" fill="#FFF"/>
        <path d="M36.233 59.254l2.748 1.597" stroke="#33475C" stroke-linecap="round" stroke-linejoin="round"/>
        <path d="M43.089 79.098l37.544-21.677" fill="#33475C"/>
        <path d="M43.089 79.098l37.544-21.677" stroke="#D4E7F7" stroke-linecap="round" stroke-linejoin="round"/>
        <path d="M43.089 85.381l32.302-18.649" fill="#33475C"/>
        <path d="M43.089 85.381l32.302-18.649" stroke="#D4E7F7" stroke-linecap="round" stroke-linejoin="round"/>
        <path d="M43.089 91.931l26.105-15.072" fill="#33475C"/>
        <path d="M43.089 91.931l26.105-15.072" stroke="#D4E7F7" stroke-linecap="round" stroke-linejoin="round"/>
        <path d="M47.28 71.399v21.933" fill="#33475C"/>
        <path d="M47.28 71.399v21.933" stroke="#D4E7F7" stroke-linecap="round" stroke-linejoin="round"/>
        <path d="M53.8 68.131v21.562" fill="#33475C"/>
        <path d="M53.8 68.131v21.562" stroke="#D4E7F7" stroke-linecap="round" stroke-linejoin="round"/>
        <path d="M60.316 64.347v21.377" fill="#33475C"/>
        <path d="M60.316 64.347v21.377" stroke="#D4E7F7" stroke-linecap="round" stroke-linejoin="round"/>
        <path d="M42.458 61.695c-.169 0-.34-.043-.497-.134-.477-.274-.64-.884-.365-1.36.708-1.227.708-3.377 0-4.604-.234-.404-.523-.656-.753-.656-.232 0-.52.252-.754.656-.253.44-.424 1.01-.495 1.653-.06.547-.547.942-1.1.88-.547-.06-.94-.552-.882-1.1.102-.912.361-1.753.751-2.43.607-1.05 1.511-1.652 2.48-1.652.97 0 1.872.602 2.48 1.653 1.066 1.85 1.066 4.746 0 6.595-.185.32-.52.499-.865.499" fill="#DCAF59"/>
        <path d="M47.856 58.63c-.17 0-.341-.044-.497-.135-.477-.274-.641-.884-.365-1.36.708-1.226.708-3.377 0-4.603-.234-.405-.522-.657-.753-.657-.231 0-.52.252-.753.657-.254.44-.426 1.01-.496 1.653-.06.547-.544.944-1.1.881-.547-.06-.942-.553-.882-1.1.102-.914.362-1.755.75-2.43.609-1.05 1.513-1.653 2.48-1.653h.002c.968 0 1.872.602 2.478 1.653 1.068 1.85 1.068 4.746 0 6.595-.185.32-.52.498-.864.498" fill="#DCAF59"/>
        <path d="M53.254 55.565c-.17 0-.341-.043-.498-.134-.477-.274-.64-.884-.364-1.36.708-1.226.708-3.377 0-4.603-.234-.405-.523-.657-.753-.657-.233 0-.52.252-.754.656-.254.44-.425 1.01-.496 1.654-.06.546-.542.945-1.1.88-.546-.06-.941-.552-.881-1.1.101-.913.361-1.754.751-2.43.607-1.05 1.509-1.652 2.479-1.652h.001c.968 0 1.872.6 2.478 1.653 1.068 1.849 1.068 4.746 0 6.595-.184.32-.519.498-.863.498" fill="#F6C364"/>
        <path d="M58.651 52.5c-.169 0-.34-.042-.497-.133-.477-.275-.64-.885-.365-1.36.709-1.227.709-3.378 0-4.605-.233-.404-.522-.656-.752-.656-.232 0-.521.252-.754.657-.255.441-.425 1.012-.495 1.651-.06.547-.556.94-1.1.883-.546-.06-.94-.552-.883-1.099.1-.91.36-1.752.752-2.43.606-1.052 1.51-1.654 2.48-1.654.969 0 1.872.602 2.479 1.653 1.067 1.85 1.067 4.746 0 6.595-.184.32-.52.498-.864.498" fill="#F6C364"/>
        <path d="M64.049 49.436c-.17 0-.341-.043-.497-.134-.477-.275-.641-.885-.365-1.36.709-1.227.709-3.377 0-4.603-.234-.405-.522-.657-.753-.657-.231 0-.52.252-.753.657-.254.439-.426 1.01-.496 1.653-.061.547-.537.942-1.1.88-.547-.06-.942-.552-.882-1.1.102-.914.362-1.754.75-2.43.609-1.05 1.513-1.652 2.48-1.652h.002c.968 0 1.872.602 2.478 1.653 1.069 1.849 1.069 4.745 0 6.595-.185.319-.52.498-.864.498" fill="#DCAF59"/>
        <path d="M69.447 46.371c-.17 0-.34-.043-.498-.134-.477-.275-.64-.885-.364-1.36.708-1.226.707-3.377 0-4.604-.234-.405-.523-.656-.753-.656-.232 0-.52.251-.753.656-.255.44-.426 1.011-.497 1.654-.06.547-.55.943-1.099.881-.547-.06-.942-.553-.882-1.1.101-.915.361-1.755.751-2.43.607-1.05 1.51-1.653 2.48-1.654.968 0 1.872.602 2.478 1.653 1.068 1.851 1.068 4.747 0 6.596-.184.32-.519.498-.863.498M53.254 55.565c-.17 0-.341-.043-.498-.134-.477-.274-.64-.884-.364-1.36.708-1.226.708-3.377 0-4.603-.234-.405-.523-.657-.753-.657-.233 0-.52.252-.754.656-.254.44-.425 1.01-.496 1.654-.06.546-.542.945-1.1.88-.546-.06-.941-.552-.881-1.1.101-.913.361-1.754.751-2.43.607-1.05 1.509-1.652 2.479-1.652h.001c.968 0 1.872.6 2.478 1.653 1.068 1.849 1.068 4.746 0 6.595-.184.32-.519.498-.863.498" fill="#DCAF59"/>
        <path d="M74.844 43.307c-.17 0-.34-.043-.497-.134-.477-.275-.64-.885-.364-1.36.708-1.227.708-3.377 0-4.604-.234-.404-.522-.656-.753-.656-.232 0-.521.252-.754.656-.254.442-.425 1.013-.495 1.652-.061.547-.55.935-1.1.883-.546-.06-.94-.552-.881-1.099.099-.911.359-1.752.75-2.431.607-1.051 1.51-1.654 2.48-1.654.968 0 1.872.603 2.479 1.653 1.068 1.85 1.067 4.747-.001 6.596-.184.319-.52.498-.864.498M58.651 52.5c-.169 0-.34-.042-.497-.133-.477-.275-.64-.885-.365-1.36.709-1.227.709-3.378 0-4.605-.233-.404-.522-.656-.752-.656-.232 0-.521.252-.754.657-.255.441-.425 1.012-.495 1.651-.06.547-.556.94-1.1.883-.546-.06-.94-.552-.883-1.099.1-.91.36-1.752.752-2.43.606-1.052 1.51-1.654 2.48-1.654.969 0 1.872.602 2.479 1.653 1.067 1.85 1.067 4.746 0 6.595-.184.32-.52.498-.864.498" fill="#DCAF59"/>
        <path d="M80.242 40.242c-.169 0-.34-.042-.497-.133-.477-.275-.64-.886-.365-1.36.71-1.227.71-3.378 0-4.605-.234-.404-.523-.655-.753-.655-.232 0-.52.25-.753.656-.254.44-.425 1.01-.496 1.652-.06.548-.546.94-1.1.882-.547-.06-.942-.553-.882-1.1.102-.914.362-1.755.751-2.43.607-1.05 1.51-1.653 2.48-1.654.968 0 1.872.602 2.48 1.653 1.067 1.85 1.067 4.746 0 6.596-.186.32-.52.498-.865.498" fill="#DCAF59"/>
        <path d="M175.906 105.85c0 .826-.292 1.407-.763 1.679-.47.27-1.12.234-1.835-.178l-72.746-42c-1.429-.825-2.598-2.85-2.598-4.5v-54c0-.823.293-1.404.763-1.677.471-.272 1.12-.234 1.835.179l72.746 41.999c1.43.825 2.598 2.85 2.598 4.5v53.999z" stroke="#33475C" stroke-width="5" stroke-linecap="round" stroke-linejoin="round"/>
        <path d="M168.408 61.84c-.64 1.105-2.33 1.337-3.76.512l-55.426-32c-1.429-.826-3.12-3.01-3.759-4.855l-6.337-18.29c-.639-1.846.007-2.68 1.436-1.854l72.746 42c1.43.824 2.076 2.405 1.436 3.511l-6.336 10.975z" stroke="#33475C" stroke-width="5" stroke-linecap="round" stroke-linejoin="round"/>
        <path d="M168.408 61.84c-.64 1.105-2.33 1.337-3.76.512l-55.426-32c-1.429-.826-3.12-3.01-3.759-4.855l-6.337-18.29c-.377-1.089-.307-1.826.107-2.078.288-.175.743-.115 1.33.224l72.745 42c1.43.824 2.076 2.405 1.436 3.511l-6.336 10.975zM132.606 33.852l8.66 25M141.266 38.852l-8.66 15" stroke="#33475C" stroke-width="5" stroke-linecap="round" stroke-linejoin="round"/>
        <path d="M136.936 41.352c-2.392-1.381-4.33-4.738-4.33-7.5 0-2.761 1.938-3.881 4.33-2.5 2.392 1.38 4.33 4.739 4.33 7.5 0 2.762-1.938 3.88-4.33 2.5z" stroke="#33475C" stroke-width="5" stroke-linecap="round" stroke-linejoin="round"/>
        <path d="M136.936 38.352c-.957-.552-1.732-1.896-1.732-3s.775-1.552 1.732-1c.956.553 1.73 1.896 1.73 3s-.774 1.553-1.73 1zM135.203 59.11s3.904 5.009 3.464 8.565" stroke="#33475C" stroke-width="5" stroke-linecap="round" stroke-linejoin="round"/>
        <path d="M136.936 61.35c-2.392-1.38-4.33-4.737-4.33-7.498 0-2.762 1.938-3.881 4.33-2.5 2.392 1.38 4.33 4.738 4.33 7.5 0 2.76-1.938 3.88-4.33 2.499z" stroke="#33475C" stroke-width="5" stroke-linecap="round" stroke-linejoin="round"/>
        <path d="M136.936 58.352c-.957-.553-1.732-1.896-1.732-3s.775-1.553 1.732-1c.956.552 1.73 1.896 1.73 3s-.774 1.552-1.73 1z" stroke="#33475C" stroke-width="5" stroke-linecap="round" stroke-linejoin="round"/>
        <path d="M177.639 44.853l-72.746-42c-.715-.413-1.364-.45-1.835-.18l-4.33 2.5c.47-.271 1.12-.233 1.835.179l72.746 42c1.429.825 2.598 2.85 2.598 4.5v53.999c0 .825-.292 1.406-.763 1.678l4.33-2.5c.47-.272.763-.853.763-1.678V49.353c0-1.65-1.17-3.676-2.598-4.5z" stroke="#33475C" stroke-width="5" stroke-linecap="round" stroke-linejoin="round"/>
        <path d="M175.396 49.791c.317.681.51 1.4.51 2.062v53.998c0 .824-.291 1.406-.763 1.677l4.33-2.5c.472-.27.764-.853.764-1.677V49.353c0-.663-.194-1.38-.511-2.062l-4.33 2.5zM175.274 49.862l4.458-2.573" stroke="#33475C" stroke-width="5" stroke-linecap="round" stroke-linejoin="round"/>
        <path d="M175.906 105.85c0 .826-.292 1.407-.763 1.679-.47.27-1.12.234-1.835-.178l-72.746-42c-1.429-.825-2.598-2.85-2.598-4.5v-54c0-.823.293-1.404.763-1.677.471-.272 1.12-.234 1.835.179l72.746 41.999c1.43.825 2.598 2.85 2.598 4.5v53.999z" fill="#F9D28C"/>
        <path d="M175.906 105.85c0 .826-.292 1.407-.763 1.679-.47.27-1.12.234-1.835-.178l-72.746-42c-1.429-.825-2.598-2.85-2.598-4.5v-54c0-.823.293-1.404.763-1.677.471-.272 1.12-.234 1.835.179l72.746 41.999c1.43.825 2.598 2.85 2.598 4.5v53.999z" stroke="#33475C" stroke-linecap="round" stroke-linejoin="round"/>
        <path d="M168.408 61.84c-.64 1.105-2.33 1.337-3.76.512l-55.426-32c-1.429-.826-3.12-3.01-3.759-4.855l-6.337-18.29c-.639-1.846.007-2.68 1.436-1.854l72.746 42c1.43.824 2.076 2.405 1.436 3.511l-6.336 10.975z" fill="#F9D28C"/>
        <path d="M168.408 61.84c-.64 1.105-2.33 1.337-3.76.512l-55.426-32c-1.429-.826-3.12-3.01-3.759-4.855l-6.337-18.29c-.639-1.846.007-2.68 1.436-1.854l72.746 42c1.43.824 2.076 2.405 1.436 3.511l-6.336 10.975z" stroke="#33475C" stroke-linecap="round" stroke-linejoin="round"/>
        <path d="M168.408 61.84c-.64 1.105-2.33 1.337-3.76.512l-55.426-32c-1.429-.826-3.12-3.01-3.759-4.855l-6.337-18.29c-.377-1.089-.307-1.826.107-2.078.288-.175.743-.115 1.33.224l72.745 42c1.43.824 2.076 2.405 1.436 3.511l-6.336 10.975z" stroke="#33475C" stroke-linecap="round" stroke-linejoin="round"/>
        <path d="M132.606 33.852l8.66 25M141.266 38.852l-8.66 15" stroke="#FFF" stroke-linecap="round" stroke-linejoin="round"/>
        <path d="M136.936 41.352c-2.392-1.381-4.33-4.738-4.33-7.5 0-2.761 1.938-3.881 4.33-2.5 2.392 1.38 4.33 4.739 4.33 7.5 0 2.762-1.938 3.88-4.33 2.5" fill="#F6C364"/>
        <path d="M136.936 41.352c-2.392-1.381-4.33-4.738-4.33-7.5 0-2.761 1.938-3.881 4.33-2.5 2.392 1.38 4.33 4.739 4.33 7.5 0 2.762-1.938 3.88-4.33 2.5z" stroke="#33475C" stroke-linecap="round" stroke-linejoin="round"/>
        <path d="M136.936 38.352c-.957-.552-1.732-1.896-1.732-3s.775-1.552 1.732-1c.956.553 1.73 1.896 1.73 3s-.774 1.553-1.73 1" fill="#FFF"/>
        <path d="M135.203 59.11s3.904 5.009 3.464 8.565" stroke="#FFF" stroke-linecap="round" stroke-linejoin="round"/>
        <path d="M136.936 61.35c-2.392-1.38-4.33-4.737-4.33-7.498 0-2.762 1.938-3.881 4.33-2.5 2.392 1.38 4.33 4.738 4.33 7.5 0 2.76-1.938 3.88-4.33 2.499" fill="#F6C364"/>
        <path d="M136.936 61.35c-2.392-1.38-4.33-4.737-4.33-7.498 0-2.762 1.938-3.881 4.33-2.5 2.392 1.38 4.33 4.738 4.33 7.5 0 2.76-1.938 3.88-4.33 2.499z" stroke="#33475C" stroke-linecap="round" stroke-linejoin="round"/>
        <path d="M136.936 58.352c-.957-.553-1.732-1.896-1.732-3s.775-1.553 1.732-1c.956.552 1.73 1.896 1.73 3s-.774 1.552-1.73 1" fill="#FFF"/>
        <path d="M177.639 44.853l-72.746-42c-.715-.413-1.364-.45-1.835-.18l-4.33 2.5c.47-.271 1.12-.233 1.835.179l72.746 42c1.429.825 2.598 2.85 2.598 4.5v53.999c0 .825-.292 1.406-.763 1.678l4.33-2.5c.47-.272.763-.853.763-1.678V49.353c0-1.65-1.17-3.676-2.598-4.5" fill="#FBE1B2"/>
        <path d="M177.639 44.853l-72.746-42c-.715-.413-1.364-.45-1.835-.18l-4.33 2.5c.47-.271 1.12-.233 1.835.179l72.746 42c1.429.825 2.598 2.85 2.598 4.5v53.999c0 .825-.292 1.406-.763 1.678l4.33-2.5c.47-.272.763-.853.763-1.678V49.353c0-1.65-1.17-3.676-2.598-4.5z" stroke="#33475C" stroke-linecap="round" stroke-linejoin="round"/>
        <path d="M175.396 49.791c.317.681.51 1.4.51 2.062v53.998c0 .824-.291 1.406-.763 1.677l4.33-2.5c.472-.27.764-.853.764-1.677V49.353c0-.663-.194-1.38-.511-2.062l-4.33 2.5z" fill="#F6C364"/>
        <path d="M175.396 49.791c.317.681.51 1.4.51 2.062v53.998c0 .824-.291 1.406-.763 1.677l4.33-2.5c.472-.27.764-.853.764-1.677V49.353c0-.663-.194-1.38-.511-2.062l-4.33 2.5z" stroke="#33475C" stroke-linecap="round" stroke-linejoin="round"/>
        <g>
            <path d="M175.274 49.862l4.457-2.573" fill="#FF8F52"/>
            <path d="M175.274 49.862l4.457-2.573" stroke="#33475C" stroke-linecap="round" stroke-linejoin="round"/>
        </g>
    </g>
</svg>
